<?xml version="1.0" encoding="UTF-8"?>
<svg id="_レイヤー_2" data-name="レイヤー 2" xmlns="http://www.w3.org/2000/svg" viewBox="0 0 26 36">
  <defs>
    <style>
      .cls-1 {
        fill: #333;
        stroke-width: 0px;
      }
    </style>
  </defs>
  <g id="PC">
    <path class="cls-1" d="M10.84,0c-.16,0-.32,0-.46.02-.93.14-1.77.58-2.57,1.29-.09.08-.17.16-.28.3-.01.02-.06.08-.06.07-.16.19-.24.28-.33.33-.17.1-.37.12-.87.09-.02,0-.02,0-.03,0-.51-.03-.76-.02-1.06.09-1.36.48-1.88,2.27-1.26,3.51.1.2.22.35.46.59.05.05.08.08.1.11.05.05.09.09.12.13.09.11.17.21.32.39.03.03.02.03.05.06.4.51.62.75.92,1,.32.26.6.45,1.21.83.02.01.59.37.79.51.5.35.96.61,1.82,1.03.03.01.66.33.78.39.08.04.4.21.46.25.34.18.6.3.87.37.27.08.53.11.78.08.2-.02.34-.19.31-.37-.03-.18-.21-.31-.41-.29-.13.02-.28,0-.46-.05-.21-.06-.43-.16-.73-.32-.06-.03-.38-.21-.47-.25-.12-.06-.65-.32-.69-.35-.04-.02-.07-.03-.1-.05-.83-.41-1.26-.65-1.73-.97-.21-.15-.4-.27-.78-.51-.02-.01-.02-.01-.05-.03-.58-.36-.84-.54-1.13-.77-.26-.21-.45-.43-.82-.9-.03-.03-.29-.36-.38-.47-.04-.05-.09-.1-.14-.16-.03-.03-.05-.05-.11-.11-.19-.2-.28-.31-.34-.43-.46-.92-.06-2.28.86-2.61.17-.06.35-.07.75-.04.01,0,.01,0,.03,0,.67.04.97.01,1.33-.21.18-.11.3-.23.51-.49,0,0,.04-.05.06-.07.09-.11.15-.17.2-.22.7-.62,1.4-1,2.17-1.11.4-.06.98.08,1.42.33,1.31.72,1.9,2.21,1.83,4.03-.03.74-.13,1.47-.33,2.52-.03.17-.06.29-.12.62-.12.62-.17.92-.23,1.28-.03.18.11.35.31.38.2.03.39-.1.42-.28.06-.35.11-.65.23-1.27.06-.33.09-.45.12-.63.2-1.08.31-1.83.34-2.61.08-2.04-.6-3.76-2.18-4.62-.43-.24-.97-.4-1.45-.43ZM20.73,3.03c-.38.02-.76.1-1.1.25-.22.09-.38.2-.65.42-.01,0-.1.08-.11.09-.06.05-.1.08-.14.11-.12.08-.22.16-.43.29-.03.02-.03.02-.07.05-.55.37-.82.57-1.09.85-.28.29-.49.55-.89,1.11-.01.02-.41.55-.56.73-.38.46-.65.88-1.11,1.67-.02.03-.35.6-.42.71-.04.07-.23.36-.26.42-.18.3-.31.53-.39.77-.09.26-.13.5-.09.73.03.18.21.31.41.28s.34-.19.31-.38c-.02-.12,0-.27.06-.44.07-.19.17-.39.33-.65.03-.05.22-.35.27-.43.07-.11.35-.59.37-.63.02-.04.04-.06.05-.09.44-.76.7-1.16,1.05-1.58.16-.2.29-.37.55-.72.01-.02.02-.02.03-.04.39-.53.58-.77.83-1.04.23-.23.47-.41.98-.76.03-.02.39-.26.51-.35.05-.04.11-.08.17-.13.02-.01.1-.09.11-.1.22-.18.34-.26.47-.31,1.01-.43,2.52-.09,2.89.74.07.15.08.31.06.68,0,.01,0,.01,0,.03-.03.61,0,.88.25,1.2.12.16.26.27.54.45,0,0,.06.04.07.05.12.08.2.13.25.18.69.62,1.12,1.26,1.25,1.95.07.36-.08.89-.34,1.3-.77,1.2-2.41,1.76-4.41,1.72-.81-.02-1.61-.1-2.74-.26-.2-.03-1.74-.25-2.14-.3-.2-.02-.38.1-.41.28-.03.18.11.35.31.38.39.05.72.09,1.4.19.38.06.53.08.73.11,1.17.16,1.99.25,2.84.26,2.24.05,4.13-.6,5.06-2.04.34-.53.53-1.21.43-1.75-.16-.85-.67-1.6-1.46-2.31-.09-.08-.18-.15-.33-.25-.02-.01-.08-.05-.07-.05-.21-.14-.31-.22-.37-.3-.12-.15-.14-.33-.11-.79,0-.01,0-.02,0-.03.02-.46,0-.69-.11-.96-.41-.92-1.62-1.4-2.78-1.34ZM5.52,10.39c-2.25-.05-4.13.6-5.06,2.05-.34.53-.53,1.21-.43,1.74.16.85.67,1.6,1.46,2.31.09.08.18.15.33.25.02.01.08.05.08.05.21.14.31.22.37.3.12.15.14.33.11.79,0,.01,0,.01,0,.03-.02.46,0,.69.11.96.55,1.23,2.52,1.67,3.88,1.09.22-.09.37-.2.65-.42.01,0,.1-.08.11-.09.06-.05.1-.08.14-.11.12-.08.22-.16.43-.29.03-.02.03-.02.07-.05.55-.37.82-.57,1.09-.85.28-.29.49-.55.9-1.11.01-.02.41-.55.56-.73.38-.46.65-.88,1.11-1.67.02-.03.35-.6.42-.71.04-.07.23-.36.26-.42.18-.3.31-.53.39-.77.09-.26.13-.5.09-.74-.03-.18-.21-.31-.41-.28-.2.03-.34.19-.31.37.02.12,0,.27-.06.44-.06.19-.17.39-.33.65-.03.05-.22.35-.27.43-.07.11-.35.59-.37.63-.02.04-.04.06-.05.09-.44.76-.7,1.16-1.05,1.58-.16.2-.29.37-.55.72-.02.02-.01.02-.03.04-.39.53-.58.78-.84,1.04-.23.23-.47.41-.98.76-.03.02-.39.26-.51.35-.05.04-.11.08-.17.13-.02.01-.11.09-.12.09-.22.18-.34.26-.47.32-1.01.43-2.51.09-2.89-.74-.07-.15-.08-.31-.06-.68,0-.01,0-.01,0-.03.03-.61,0-.88-.25-1.2-.12-.16-.26-.27-.54-.45,0,0-.06-.04-.07-.05-.13-.08-.2-.13-.25-.18-.7-.62-1.12-1.26-1.25-1.95-.07-.36.08-.89.34-1.29.77-1.2,2.41-1.76,4.41-1.72.81.02,1.6.1,2.74.26.2.03,1.74.25,2.14.3.2.02.39-.1.41-.29.03-.18-.11-.35-.31-.37-.39-.05-.72-.09-1.4-.19-.38-.06-.53-.08-.73-.1-1.17-.16-1.99-.25-2.84-.27ZM13.39,11.79c-.2.02-.34.19-.32.37s.21.31.41.29c.13-.02.28,0,.46.06.21.06.44.16.73.31.06.03.38.21.47.25.12.06.65.32.69.35.04.02.07.04.1.05.83.41,1.26.65,1.72.97.21.15.4.27.79.51.02.01.02.01.04.03.58.36.84.54,1.13.77.26.21.45.43.82.9.02.03.29.36.38.47.04.05.08.1.14.15.03.03.05.06.11.11.19.2.28.31.34.43.46.92.06,2.28-.86,2.61-.17.06-.35.07-.75.05-.01,0-.01,0-.03,0-.67-.04-.97-.01-1.33.2-.18.11-.3.23-.51.49,0,0-.04.05-.06.07-.09.11-.15.17-.2.22-.7.62-1.4,1-2.17,1.11-.4.06-.98-.08-1.42-.32-1.31-.72-1.9-2.21-1.83-4.03.03-.74.13-1.47.33-2.52.03-.17.05-.29.12-.62.12-.62.18-.92.24-1.28.03-.18-.11-.35-.31-.38-.2-.03-.39.1-.42.28-.06.35-.11.65-.23,1.26-.06.33-.09.45-.12.63-.2,1.08-.31,1.83-.34,2.61-.08,2.04.6,3.76,2.18,4.62.58.32,1.33.5,1.92.41.93-.14,1.77-.58,2.56-1.29.09-.08.16-.16.28-.3.01-.02.06-.07.06-.07.16-.19.24-.28.33-.33.17-.1.36-.12.87-.09.01,0,.01,0,.03,0,.51.03.76.02,1.06-.09,1.36-.48,1.88-2.27,1.26-3.51-.1-.2-.22-.34-.45-.59-.05-.05-.08-.08-.1-.11-.05-.05-.08-.09-.12-.13-.09-.11-.17-.2-.32-.39-.02-.03-.02-.03-.05-.06-.4-.51-.62-.75-.92-1-.32-.26-.6-.45-1.21-.83-.02-.01-.59-.38-.79-.52-.5-.35-.96-.61-1.82-1.03-.03-.01-.66-.33-.78-.39-.08-.04-.4-.21-.46-.25-.34-.18-.6-.3-.87-.37-.27-.08-.53-.11-.78-.08ZM10.64,17.73c-.14-.01-.29.05-.36.17-2.75,4.62-4.31,9.23-4.75,14.19-.03.32-.04.65-.04.97,0,.96.16,1.86.51,2.37.27.4.84.59,1.39.57.55-.02,1.08-.25,1.27-.71.07-.17-.02-.36-.21-.43-.19-.07-.4.02-.47.19-.16.37-1.12.39-1.36.03-.35-.51-.46-1.79-.36-2.93.43-4.86,1.96-9.39,4.66-13.93.1-.16.03-.36-.15-.45-.04-.02-.09-.03-.14-.04Z"/>
  </g>
</svg>