<?xml version="1.0" encoding="UTF-8"?>
<svg id="_レイヤー_2" data-name="レイヤー 2" xmlns="http://www.w3.org/2000/svg" viewBox="0 0 53 60.12">
  <defs>
    <style>
      .cls-1 {
        fill: none;
        stroke: #000;
        stroke-miterlimit: 10;
      }

      .cls-2 {
        fill: #333;
        stroke-width: 0px;
      }

      .cls-3 {
        font-family: KozGoPr6N-Regular-90ms-RKSJ-H, 'Kozuka Gothic Pr6N';
        font-size: 8px;
      }
    </style>
  </defs>
  <g id="SP">
    <g>
      <path class="cls-2" d="M26.35,14.47c-.31.02-.6.14-.85.32-.25.18-.44.39-.75.79-.62.81-.96,1.54-1.47,2.99-.11.32-.11.3-.16.44-.59-.51-1.36-.8-2.12-.8-.82,0-1.62.3-2.15.94-.72.88-1.14,2.19-1.22,3.53-.04.65-.05,1.33-.03,2.05.03,1.25.12,2.27.35,4.49.1.92.14,1.31.19,1.81.05.56.08,1.01.13,2.03,0,.06,0,.06,0,.12.07,1.51.13,2.27.27,3.15.07.42.11.84.15,1.34.01.21.02.4.04.76.02.42.03.56.04.77,0,.08,0,.15,0,.34,0,.13,0,.19,0,.27,0,.1.02.18.03.27-.12,0-.23.05-.33.12-.05-.38-.25-.76-.55-1.14-.25-.31-.61-.49-1.03-.5-.14,0-.29.01-.45.04-.09.02-.16.05-.24.08-.02-.02-.04-.04-.07-.05-.3-.11-.64-.44-1.02-.98-.08-.12-.17-.24-.28-.4-.02-.03-.21-.32-.24-.37-.83-1.22-1.27-2.53-1.54-4.35-.14-.97.13-1.97.73-2.45.38-.3.88-.27,1.17,0,.25.23.22.51-.21.78-.18.11-.23.35-.12.52.11.18.35.23.52.12.84-.53.93-1.4.32-1.97-.28-.26-.65-.41-1.03-.42s-.78.11-1.12.37c-.85.67-1.19,1.94-1.02,3.15.28,1.92.76,3.33,1.66,4.66.03.05.22.33.24.36.11.17.2.29.29.42.07.1.14.18.21.27-.17-.08-.34-.16-.54-.27-.15-.09-.6-.36-.64-.38-1.28-.75-2.23-1.74-3.24-3.27-.54-.82-.73-1.84-.38-2.53.22-.44.68-.62,1.06-.5.33.1.42.37.15.8-.11.18-.06.41.12.52.18.11.41.06.52-.12.53-.84.24-1.66-.55-1.91-.18-.06-.37-.08-.56-.07-.56.03-1.11.37-1.4.95-.18.36-.26.77-.26,1.19.01.71.26,1.45.69,2.09,1.07,1.62,2.1,2.69,3.49,3.51.03.02.49.29.64.38.3.18.57.31.83.42.24.1.47.15.68.19-.06.13-.1.27-.1.42-.01.44.24.91.63,1.28.01.01.15.15.18.18.25.23.48.37.75.41.15.02.26.02.38,0,.07-.02.29-.1.33-.12.18-.06.33-.14.46-.22.01.4.17.83.45,1.29.35.57.84,1.12,1.36,1.61.31.29.63.5.98.58-.02.12-.04.26-.06.41,0,.07-.01.15-.02.24,0,.03-.02.37-.03.42-.02.25-.04.51-.04.76-.03,1.75.4,3.35,1.35,4.64.37.5.84,1,1.26,1.35.38.31.82.24,1.17-.08.25-.23.44-.59.47-.89.02-.16.02-.33.02-.52,0-.08-.02-.44-.02-.5-.01-.26-.03-.53-.07-.84-.02-.16-.02-.18-.08-.61,0-.03,0-.05-.01-.08-.15-1.06-.27-1.59-.55-2.18-.55-1.17-1.26-2.19-2.01-2.65,0-.03,0-.06,0-.09,0-.04,0-.07-.02-.11-.01-.05-.03-.1-.05-.15-.03-.08-.08-.19-.14-.31.05.02.1.05.15.07.09.04.59.23.71.28.08.03.15.06.21.09.24.12.44.22.87.46.01,0,.01,0,.02.01.69.38,1.02.55,1.45.73.94.4,1.89.72,3.18,1.08,1.06.3,2.19.65,3.44,1.06.06.02.06.02.12.04,1.68.55,2.44.77,3.4.92,1.29.2,2.45.14,3.57-.24.14-.05.29-.08.59-.14-.01,0,.24-.05.28-.06.9-.2,1.41-.46,1.7-1.05.15-.3.17-.53.12-.95t0-.02c-.01-.15,0-.2,0-.27.05,0,.08,0,.2-.01.06,0,.09,0,.12,0,.39-.05.8-.14,1.15-.29.58-.24.94-.61.87-1.14-.08-.59-.37-1.01-.84-1.3-.34-.21-.67-.32-1.33-.48-.02,0-.04-.01-.08-.02-.67-.17-.94-.26-1.18-.43-.36-.26-.57-.6-.92-1.36-.01-.02-.02-.05-.05-.1-.2-.45-.31-.67-.47-.91-.17-.26-.37-.51-.7-.86-.05-.05-.34-.36-.4-.42-.57-.64-1.26-.99-2.22-1.19-.46-.1-.92-.15-1.38-.14-.48,0-.96.08-1.44.19.89-.67,1.61-1.46,2.17-2.48,1.32-2.4,1.27-4.66.18-7.87-.06-.17-.22-.66-.24-.7-.47-1.42-.72-2.1-1.09-2.89-.66-1.41-1.44-2.62-2.83-4.55-.18-.25-.85-1.24-.98-1.42-.53-.76-.99-1.31-1.49-1.75-.64-.56-1.33-.9-2.08-.97-.11-.01-.22-.01-.32,0ZM26.6,15.23c1.08.11,1.95.87,3.03,2.4.12.16.79,1.17.98,1.43,1.37,1.89,2.13,3.07,2.76,4.42.35.75.6,1.42,1.06,2.81.01.04.18.53.24.7,1.03,3.03,1.07,5.08-.13,7.26-.59,1.08-1.35,1.88-2.36,2.54-.81.53-1.66.92-3.25,1.55-.37.15-.69.28-1.33.54-.02,0-.02,0-.04.01-2.44.99-3.53,1.39-4.95,1.7-.27.06-.47.15-.89.36-.13.06-.17.09-.24.12-.33.16-.54.21-.74.18h0c0-.11.01-.28.06-.52.01-.06.02-.12.04-.2.09-.43.1-.45.11-.58.07-.68.13-1.32.22-2.37,0-.09.09-.97.11-1.21.08-.86.13-1.75.15-2.58,0-.25.04-.48.12-.89,0-.02,0-.04.02-.08.06-.3.08-.43.11-.61.05-.35.07-.71.08-1.22,0-.08.02-.79.03-.98.02-.39.08-.72.24-1.43.09-.41.13-.57.17-.8.05-.32.07-.58.09-1.12,0,0,.02-.44.03-.6.02-.26.07-.54.13-.87.04-.18.07-.34.15-.65.11-.47.16-.65.21-.9.07-.34.11-.6.2-1.23.18-1.23.3-1.78.55-2.43.07-.18.14-.37.22-.59.03-.09.18-.51.2-.57.49-1.38.8-2.05,1.36-2.78.52-.67.79-.87,1.26-.82ZM21.02,18.97c.62,0,1.25.24,1.7.69.04.04.08.07.13.09-.27.71-.4,1.3-.58,2.56-.09.61-.13.86-.19,1.19-.05.23-.08.41-.19.86-.08.32-.12.48-.16.67-.08.36-.13.67-.15.97-.01.17-.02.31-.03.62,0,0,0,0,0,.02-.02.51-.04.75-.09,1.02-.04.21-.07.37-.16.76-.17.75-.23,1.1-.25,1.55-.01.2-.02.36-.03.73,0,.14,0,.19,0,.27-.02.49-.03.82-.08,1.14-.02.16-.04.29-.1.57,0,.04-.01.06-.02.08-.09.45-.13.71-.13,1.02-.02.81-.07,1.69-.14,2.53-.02.24-.27,2.9-.33,3.57,0,.09-.02.11-.1.49-.02.09-.03.15-.04.22-.02.08-.02.13-.03.2-.01-.01-.02-.02-.03-.03-.07-.08-.13-.13-.2-.21-.05-.04-.09-.08-.14-.12,0-.02-.01-.04-.03-.05-.08-.11-.12-.29-.12-.6,0-.07,0-.12,0-.24,0-.21,0-.29,0-.4-.01-.21-.07-1.32-.08-1.53-.03-.52-.08-.96-.15-1.41-.14-.84-.2-1.58-.27-3.06,0-.06,0-.06,0-.12-.05-1.03-.07-1.49-.13-2.06-.05-.5-.09-.9-.18-1.82-.23-2.2-.32-3.2-.35-4.43-.02-.69,0-1.35.03-1.98.08-1.2.45-2.36,1.05-3.1.37-.46.97-.67,1.59-.66ZM34.47,37.67c.41,0,.81.04,1.23.13.81.18,1.36.45,1.82.96.06.06.36.39.4.44.3.32.48.54.62.75.13.2.23.4.42.82.02.05.04.07.05.1.4.87.66,1.29,1.16,1.65.34.25.68.36,1.44.55.04.01.06.02.08.02,1.14.28,1.52.51,1.6,1.15.03.22-.6.48-1.36.57,0,0-.14,0-.16,0-.05,0-.09,0-.14,0-.12.01-.22.03-.31.06-.17.07-.31.18-.35.37-.04.21-.04.36-.01.66,0,.01,0,0,0,.02.03.28.02.4-.05.54-.16.33-.5.49-1.19.65-.04,0-.29.06-.28.06-.32.07-.49.11-.68.17-1,.34-2.04.39-3.21.21-.91-.14-1.64-.35-3.27-.89-.06-.02-.06-.02-.12-.04-1.26-.41-2.4-.76-3.47-1.07-1.26-.36-2.18-.67-3.09-1.06-.4-.17-.71-.33-1.38-.69-.01,0-.66-.36-.92-.48-.07-.04-.16-.08-.25-.12-.13-.06-.64-.25-.72-.28-.65-.26-.98-.49-1.06-.73,0,0,0,0,.02,0,.13-.05.31-.09.64-.14.04,0,.08-.01.16-.02.43-.06.62-.09.8-.18.18-.08.23-.1.67-.31.86-.41,1.3-.59,1.83-.69.21-.04.59-.15,1.29-.39.02,0,1.1-.37,1.24-.4.27-.07.48-.15.89-.36.03-.01.04-.02.06-.03.3-.15.47-.22.65-.26.15-.04.27-.08.39-.12.2-.07.35-.14.52-.24.04-.02.27-.16.28-.17,1.31-.8,2.54-1.22,3.77-1.23ZM16.83,39.3c.22,0,.37.08.49.22.23.28.38.56.4.77.02.21-.09.36-.49.5-.08.03-.25.1-.27.1,0,0,0,0,0,0-.02,0-.04,0-.08,0-.09-.01-.21-.08-.36-.22-.03-.02-.16-.15-.17-.17-.25-.24-.4-.52-.4-.72,0-.19.17-.35.65-.45.08-.02.16-.03.24-.03ZM18.85,40.82s.11.03.19.09c.14.09.27.21.41.37.59.64,1.07,1.35,1.54,2.21,0,.01.17.3.2.37.01.02.02.04.03.06.02.04.03.07.05.1-.02,0-.03,0-.05.01-.32.05-.62-.08-.95-.39-1.21-1.14-1.92-2.29-1.41-2.82ZM21.51,44.78c.61.22,1.38,1.26,1.93,2.43.24.51.34.98.48,1.97,0,.03.07.52.09.67.04.29.06.54.07.78,0,.06.02.41.02.49,0,.16,0,.3,0,.42,0,.1-.11.29-.23.4-.1.09-.13.09-.19.05-.38-.31-.8-.76-1.13-1.21-.97-1.3-1.34-3.01-1.16-4.87,0-.06,0-.13.02-.23,0-.02,0-.18.01-.21,0-.08.01-.15.02-.22.02-.22.05-.37.09-.47Z"/>
      <text class="cls-3" transform="translate(5.98 16.38) rotate(-41.41)"><tspan x="0" y="0">ペ</tspan></text>
      <text class="cls-3" transform="translate(11.71 11.26) rotate(-24.94)"><tspan x="0" y="0">ー</tspan></text>
      <text class="cls-3" transform="translate(18.63 7.99) rotate(-8.42)"><tspan x="0" y="0">ジ</tspan></text>
      <text class="cls-3" transform="translate(26.2 6.82) rotate(7.87)"><tspan x="0" y="0">ト</tspan></text>
      <text class="cls-3" transform="translate(33.78 7.82) rotate(24.37)"><tspan x="0" y="0">ッ</tspan></text>
      <text class="cls-3" transform="translate(40.79 10.94) rotate(40.81)"><tspan x="0" y="0">プ</tspan></text>
      <circle class="cls-1" cx="26.5" cy="33.4" r="23.25"/>
    </g>
  </g>
</svg>